# xmcd CD database file
#
# Track frame offsets:
#	183
#	16815
#	46945
#	74895
#	102995
#	136720
#	175558
#	220733
#
# Disc length: 3224 seconds
#
# Revision: 0
# Processed by: cddbd v1.4PL0 Copyright (c) Steve Scherf et al.
# Submitted via: CDex 1.50
#
DISCID=670c9608
DTITLE=James Williams - Magical Trio 2
DYEAR=1987
DGENRE=Jazz
TTITLE0=Bohemia After Dark
TTITLE1=Too Late Now
TTITLE2=A Portrait Of Elvin
TTITLE3=Roadlife
TTITLE4=In The Open Court
TTITLE5=You Are Too Beautiful
TTITLE6=Lullabye Of The Leaves
TTITLE7=Bohemia After Dark(Alternate Take)
EXTD=YEAR: 1987
EXTT0=
EXTT1=
EXTT2=
EXTT3=
EXTT4=
EXTT5=
EXTT6=
EXTT7=
PLAYORDER=
